G04 #@! TF.FileFunction,Legend,Top*
%FSLAX46Y46*%
G04 Gerber Fmt 4.6, Leading zero omitted, Abs format (unit mm)*
G04 Created by KiCad (PCBNEW 4.0.7) date 02/19/20 23:21:01*
%MOMM*%
%LPD*%
G01*
G04 APERTURE LIST*
%ADD10C,0.100000*%
%ADD11C,0.200000*%
%ADD12C,0.150000*%
%ADD13C,0.120000*%
G04 APERTURE END LIST*
D10*
D11*
X115000000Y-107000000D02*
X114250000Y-107500000D01*
D12*
X114600000Y-88642857D02*
X114552381Y-88738095D01*
X114552381Y-88880952D01*
X114600000Y-89023810D01*
X114695238Y-89119048D01*
X114790476Y-89166667D01*
X114980952Y-89214286D01*
X115123810Y-89214286D01*
X115314286Y-89166667D01*
X115409524Y-89119048D01*
X115504762Y-89023810D01*
X115552381Y-88880952D01*
X115552381Y-88785714D01*
X115504762Y-88642857D01*
X115457143Y-88595238D01*
X115123810Y-88595238D01*
X115123810Y-88785714D01*
X114885714Y-88166667D02*
X115552381Y-88166667D01*
X114980952Y-88166667D02*
X114933333Y-88119048D01*
X114885714Y-88023810D01*
X114885714Y-87880952D01*
X114933333Y-87785714D01*
X115028571Y-87738095D01*
X115552381Y-87738095D01*
X115552381Y-86833333D02*
X114552381Y-86833333D01*
X115504762Y-86833333D02*
X115552381Y-86928571D01*
X115552381Y-87119048D01*
X115504762Y-87214286D01*
X115457143Y-87261905D01*
X115361905Y-87309524D01*
X115076190Y-87309524D01*
X114980952Y-87261905D01*
X114933333Y-87214286D01*
X114885714Y-87119048D01*
X114885714Y-86928571D01*
X114933333Y-86833333D01*
X114652381Y-90790476D02*
X114652381Y-91266667D01*
X115128571Y-91314286D01*
X115080952Y-91266667D01*
X115033333Y-91171429D01*
X115033333Y-90933333D01*
X115080952Y-90838095D01*
X115128571Y-90790476D01*
X115223810Y-90742857D01*
X115461905Y-90742857D01*
X115557143Y-90790476D01*
X115604762Y-90838095D01*
X115652381Y-90933333D01*
X115652381Y-91171429D01*
X115604762Y-91266667D01*
X115557143Y-91314286D01*
X114652381Y-90457143D02*
X115652381Y-90123810D01*
X114652381Y-89790476D01*
X115404762Y-94076190D02*
X115452381Y-93933333D01*
X115452381Y-93695237D01*
X115404762Y-93599999D01*
X115357143Y-93552380D01*
X115261905Y-93504761D01*
X115166667Y-93504761D01*
X115071429Y-93552380D01*
X115023810Y-93599999D01*
X114976190Y-93695237D01*
X114928571Y-93885714D01*
X114880952Y-93980952D01*
X114833333Y-94028571D01*
X114738095Y-94076190D01*
X114642857Y-94076190D01*
X114547619Y-94028571D01*
X114500000Y-93980952D01*
X114452381Y-93885714D01*
X114452381Y-93647618D01*
X114500000Y-93504761D01*
X115452381Y-93076190D02*
X114785714Y-93076190D01*
X114452381Y-93076190D02*
X114500000Y-93123809D01*
X114547619Y-93076190D01*
X114500000Y-93028571D01*
X114452381Y-93076190D01*
X114547619Y-93076190D01*
X114785714Y-92171428D02*
X115595238Y-92171428D01*
X115690476Y-92219047D01*
X115738095Y-92266666D01*
X115785714Y-92361905D01*
X115785714Y-92504762D01*
X115738095Y-92600000D01*
X115404762Y-92171428D02*
X115452381Y-92266666D01*
X115452381Y-92457143D01*
X115404762Y-92552381D01*
X115357143Y-92600000D01*
X115261905Y-92647619D01*
X114976190Y-92647619D01*
X114880952Y-92600000D01*
X114833333Y-92552381D01*
X114785714Y-92457143D01*
X114785714Y-92266666D01*
X114833333Y-92171428D01*
D11*
X114250000Y-106500000D02*
X114250000Y-107500000D01*
X115000000Y-107000000D02*
X114250000Y-106500000D01*
D13*
X135980000Y-95000000D02*
X135980000Y-97000000D01*
X138020000Y-97000000D02*
X138020000Y-95000000D01*
X121020000Y-99500000D02*
X121020000Y-97500000D01*
X118980000Y-97500000D02*
X118980000Y-99500000D01*
X139980000Y-95000000D02*
X139980000Y-97000000D01*
X142020000Y-97000000D02*
X142020000Y-95000000D01*
X138000000Y-102520000D02*
X140000000Y-102520000D01*
X140000000Y-100480000D02*
X138000000Y-100480000D01*
X119060000Y-94330000D02*
X119060000Y-86590000D01*
X119060000Y-86590000D02*
X116400000Y-86590000D01*
X116400000Y-86590000D02*
X116400000Y-94330000D01*
X116400000Y-94330000D02*
X119060000Y-94330000D01*
X119390000Y-93380000D02*
X119060000Y-93380000D01*
X119390000Y-92620000D02*
X119060000Y-92620000D01*
X119060000Y-91730000D02*
X116400000Y-91730000D01*
X119457071Y-90840000D02*
X119060000Y-90840000D01*
X119457071Y-90080000D02*
X119060000Y-90080000D01*
X119060000Y-89190000D02*
X116400000Y-89190000D01*
X119457071Y-88300000D02*
X119060000Y-88300000D01*
X119457071Y-87540000D02*
X119060000Y-87540000D01*
X121770000Y-93000000D02*
X121770000Y-94270000D01*
X121770000Y-94270000D02*
X120500000Y-94270000D01*
X117330000Y-95510000D02*
X114670000Y-95510000D01*
X117330000Y-105730000D02*
X117330000Y-95510000D01*
X114670000Y-105730000D02*
X114670000Y-95510000D01*
X117330000Y-105730000D02*
X114670000Y-105730000D01*
X117330000Y-107000000D02*
X117330000Y-108330000D01*
X117330000Y-108330000D02*
X116000000Y-108330000D01*
X121330000Y-103130000D02*
X118670000Y-103130000D01*
X121330000Y-105730000D02*
X121330000Y-103130000D01*
X118670000Y-105730000D02*
X118670000Y-103130000D01*
X121330000Y-105730000D02*
X118670000Y-105730000D01*
X121330000Y-107000000D02*
X121330000Y-108330000D01*
X121330000Y-108330000D02*
X120000000Y-108330000D01*
D12*
X137214000Y-91540000D02*
X137214000Y-86460000D01*
X137214000Y-86460000D02*
X141786000Y-86460000D01*
X141786000Y-86460000D02*
X141786000Y-91540000D01*
X141786000Y-91540000D02*
X137214000Y-91540000D01*
X138738000Y-91540000D02*
X138738000Y-91032000D01*
X138738000Y-91032000D02*
X140008000Y-91032000D01*
X140008000Y-91032000D02*
X140008000Y-91540000D01*
X123500000Y-99750000D02*
X122500000Y-99750000D01*
X126000000Y-99750000D02*
X125500000Y-99750000D01*
X128500000Y-99750000D02*
X128000000Y-99750000D01*
X131000000Y-99750000D02*
X130500000Y-99750000D01*
X134500000Y-99750000D02*
X133000000Y-99750000D01*
X122500000Y-109000000D02*
X122500000Y-98000000D01*
X134500000Y-109000000D02*
X134500000Y-98000000D01*
X133500000Y-95250000D02*
X134500000Y-95250000D01*
X131000000Y-95250000D02*
X131500000Y-95250000D01*
X128500000Y-95250000D02*
X129000000Y-95250000D01*
X126000000Y-95250000D02*
X126500000Y-95250000D01*
X122500000Y-95250000D02*
X124000000Y-95250000D01*
X134500000Y-86000000D02*
X134500000Y-97000000D01*
X122500000Y-86000000D02*
X122500000Y-97000000D01*
D13*
X135500000Y-103400000D02*
X142500000Y-103400000D01*
X135500000Y-108600000D02*
X142500000Y-108600000D01*
X142500000Y-108600000D02*
X142500000Y-107600000D01*
D12*
X135607143Y-98666666D02*
X135654762Y-98714285D01*
X135702381Y-98857142D01*
X135702381Y-98952380D01*
X135654762Y-99095238D01*
X135559524Y-99190476D01*
X135464286Y-99238095D01*
X135273810Y-99285714D01*
X135130952Y-99285714D01*
X134940476Y-99238095D01*
X134845238Y-99190476D01*
X134750000Y-99095238D01*
X134702381Y-98952380D01*
X134702381Y-98857142D01*
X134750000Y-98714285D01*
X134797619Y-98666666D01*
X135702381Y-97714285D02*
X135702381Y-98285714D01*
X135702381Y-98000000D02*
X134702381Y-98000000D01*
X134845238Y-98095238D01*
X134940476Y-98190476D01*
X134988095Y-98285714D01*
X135702381Y-96071428D02*
X135702381Y-96642857D01*
X135702381Y-96357143D02*
X134702381Y-96357143D01*
X134845238Y-96452381D01*
X134940476Y-96547619D01*
X134988095Y-96642857D01*
X134702381Y-95452381D02*
X134702381Y-95357142D01*
X134750000Y-95261904D01*
X134797619Y-95214285D01*
X134892857Y-95166666D01*
X135083333Y-95119047D01*
X135321429Y-95119047D01*
X135511905Y-95166666D01*
X135607143Y-95214285D01*
X135654762Y-95261904D01*
X135702381Y-95357142D01*
X135702381Y-95452381D01*
X135654762Y-95547619D01*
X135607143Y-95595238D01*
X135511905Y-95642857D01*
X135321429Y-95690476D01*
X135083333Y-95690476D01*
X134892857Y-95642857D01*
X134797619Y-95595238D01*
X134750000Y-95547619D01*
X134702381Y-95452381D01*
X135035714Y-94261904D02*
X135702381Y-94261904D01*
X135035714Y-94690476D02*
X135559524Y-94690476D01*
X135654762Y-94642857D01*
X135702381Y-94547619D01*
X135702381Y-94404761D01*
X135654762Y-94309523D01*
X135607143Y-94261904D01*
X135178571Y-93452380D02*
X135178571Y-93785714D01*
X135702381Y-93785714D02*
X134702381Y-93785714D01*
X134702381Y-93309523D01*
X122107143Y-100916666D02*
X122154762Y-100964285D01*
X122202381Y-101107142D01*
X122202381Y-101202380D01*
X122154762Y-101345238D01*
X122059524Y-101440476D01*
X121964286Y-101488095D01*
X121773810Y-101535714D01*
X121630952Y-101535714D01*
X121440476Y-101488095D01*
X121345238Y-101440476D01*
X121250000Y-101345238D01*
X121202381Y-101202380D01*
X121202381Y-101107142D01*
X121250000Y-100964285D01*
X121297619Y-100916666D01*
X121297619Y-100535714D02*
X121250000Y-100488095D01*
X121202381Y-100392857D01*
X121202381Y-100154761D01*
X121250000Y-100059523D01*
X121297619Y-100011904D01*
X121392857Y-99964285D01*
X121488095Y-99964285D01*
X121630952Y-100011904D01*
X122202381Y-100583333D01*
X122202381Y-99964285D01*
X121202381Y-98892857D02*
X121202381Y-98797618D01*
X121250000Y-98702380D01*
X121297619Y-98654761D01*
X121392857Y-98607142D01*
X121583333Y-98559523D01*
X121821429Y-98559523D01*
X122011905Y-98607142D01*
X122107143Y-98654761D01*
X122154762Y-98702380D01*
X122202381Y-98797618D01*
X122202381Y-98892857D01*
X122154762Y-98988095D01*
X122107143Y-99035714D01*
X122011905Y-99083333D01*
X121821429Y-99130952D01*
X121583333Y-99130952D01*
X121392857Y-99083333D01*
X121297619Y-99035714D01*
X121250000Y-98988095D01*
X121202381Y-98892857D01*
X122107143Y-98130952D02*
X122154762Y-98083333D01*
X122202381Y-98130952D01*
X122154762Y-98178571D01*
X122107143Y-98130952D01*
X122202381Y-98130952D01*
X122202381Y-97130952D02*
X122202381Y-97702381D01*
X122202381Y-97416667D02*
X121202381Y-97416667D01*
X121345238Y-97511905D01*
X121440476Y-97607143D01*
X121488095Y-97702381D01*
X121535714Y-96273809D02*
X122202381Y-96273809D01*
X121535714Y-96702381D02*
X122059524Y-96702381D01*
X122154762Y-96654762D01*
X122202381Y-96559524D01*
X122202381Y-96416666D01*
X122154762Y-96321428D01*
X122107143Y-96273809D01*
X121678571Y-95464285D02*
X121678571Y-95797619D01*
X122202381Y-95797619D02*
X121202381Y-95797619D01*
X121202381Y-95321428D01*
X139607143Y-98166666D02*
X139654762Y-98214285D01*
X139702381Y-98357142D01*
X139702381Y-98452380D01*
X139654762Y-98595238D01*
X139559524Y-98690476D01*
X139464286Y-98738095D01*
X139273810Y-98785714D01*
X139130952Y-98785714D01*
X138940476Y-98738095D01*
X138845238Y-98690476D01*
X138750000Y-98595238D01*
X138702381Y-98452380D01*
X138702381Y-98357142D01*
X138750000Y-98214285D01*
X138797619Y-98166666D01*
X138702381Y-97833333D02*
X138702381Y-97214285D01*
X139083333Y-97547619D01*
X139083333Y-97404761D01*
X139130952Y-97309523D01*
X139178571Y-97261904D01*
X139273810Y-97214285D01*
X139511905Y-97214285D01*
X139607143Y-97261904D01*
X139654762Y-97309523D01*
X139702381Y-97404761D01*
X139702381Y-97690476D01*
X139654762Y-97785714D01*
X139607143Y-97833333D01*
X138702381Y-95261905D02*
X138702381Y-95166666D01*
X138750000Y-95071428D01*
X138797619Y-95023809D01*
X138892857Y-94976190D01*
X139083333Y-94928571D01*
X139321429Y-94928571D01*
X139511905Y-94976190D01*
X139607143Y-95023809D01*
X139654762Y-95071428D01*
X139702381Y-95166666D01*
X139702381Y-95261905D01*
X139654762Y-95357143D01*
X139607143Y-95404762D01*
X139511905Y-95452381D01*
X139321429Y-95500000D01*
X139083333Y-95500000D01*
X138892857Y-95452381D01*
X138797619Y-95404762D01*
X138750000Y-95357143D01*
X138702381Y-95261905D01*
X139607143Y-94500000D02*
X139654762Y-94452381D01*
X139702381Y-94500000D01*
X139654762Y-94547619D01*
X139607143Y-94500000D01*
X139702381Y-94500000D01*
X139702381Y-93500000D02*
X139702381Y-94071429D01*
X139702381Y-93785715D02*
X138702381Y-93785715D01*
X138845238Y-93880953D01*
X138940476Y-93976191D01*
X138988095Y-94071429D01*
X137333334Y-100357143D02*
X137285715Y-100404762D01*
X137142858Y-100452381D01*
X137047620Y-100452381D01*
X136904762Y-100404762D01*
X136809524Y-100309524D01*
X136761905Y-100214286D01*
X136714286Y-100023810D01*
X136714286Y-99880952D01*
X136761905Y-99690476D01*
X136809524Y-99595238D01*
X136904762Y-99500000D01*
X137047620Y-99452381D01*
X137142858Y-99452381D01*
X137285715Y-99500000D01*
X137333334Y-99547619D01*
X138190477Y-99785714D02*
X138190477Y-100452381D01*
X137952381Y-99404762D02*
X137714286Y-100119048D01*
X138333334Y-100119048D01*
X139988095Y-99452381D02*
X140083334Y-99452381D01*
X140178572Y-99500000D01*
X140226191Y-99547619D01*
X140273810Y-99642857D01*
X140321429Y-99833333D01*
X140321429Y-100071429D01*
X140273810Y-100261905D01*
X140226191Y-100357143D01*
X140178572Y-100404762D01*
X140083334Y-100452381D01*
X139988095Y-100452381D01*
X139892857Y-100404762D01*
X139845238Y-100357143D01*
X139797619Y-100261905D01*
X139750000Y-100071429D01*
X139750000Y-99833333D01*
X139797619Y-99642857D01*
X139845238Y-99547619D01*
X139892857Y-99500000D01*
X139988095Y-99452381D01*
X140750000Y-100357143D02*
X140797619Y-100404762D01*
X140750000Y-100452381D01*
X140702381Y-100404762D01*
X140750000Y-100357143D01*
X140750000Y-100452381D01*
X141750000Y-100452381D02*
X141178571Y-100452381D01*
X141464285Y-100452381D02*
X141464285Y-99452381D01*
X141369047Y-99595238D01*
X141273809Y-99690476D01*
X141178571Y-99738095D01*
X121452381Y-94533333D02*
X122166667Y-94533333D01*
X122309524Y-94580953D01*
X122404762Y-94676191D01*
X122452381Y-94819048D01*
X122452381Y-94914286D01*
X121452381Y-94152381D02*
X121452381Y-93533333D01*
X121833333Y-93866667D01*
X121833333Y-93723809D01*
X121880952Y-93628571D01*
X121928571Y-93580952D01*
X122023810Y-93533333D01*
X122261905Y-93533333D01*
X122357143Y-93580952D01*
X122404762Y-93628571D01*
X122452381Y-93723809D01*
X122452381Y-94009524D01*
X122404762Y-94104762D01*
X122357143Y-94152381D01*
X122404762Y-90457143D02*
X122452381Y-90314286D01*
X122452381Y-90076190D01*
X122404762Y-89980952D01*
X122357143Y-89933333D01*
X122261905Y-89885714D01*
X122166667Y-89885714D01*
X122071429Y-89933333D01*
X122023810Y-89980952D01*
X121976190Y-90076190D01*
X121928571Y-90266667D01*
X121880952Y-90361905D01*
X121833333Y-90409524D01*
X121738095Y-90457143D01*
X121642857Y-90457143D01*
X121547619Y-90409524D01*
X121500000Y-90361905D01*
X121452381Y-90266667D01*
X121452381Y-90028571D01*
X121500000Y-89885714D01*
X122404762Y-89076190D02*
X122452381Y-89171428D01*
X122452381Y-89361905D01*
X122404762Y-89457143D01*
X122309524Y-89504762D01*
X121928571Y-89504762D01*
X121833333Y-89457143D01*
X121785714Y-89361905D01*
X121785714Y-89171428D01*
X121833333Y-89076190D01*
X121928571Y-89028571D01*
X122023810Y-89028571D01*
X122119048Y-89504762D01*
X122452381Y-88600000D02*
X121785714Y-88600000D01*
X121976190Y-88600000D02*
X121880952Y-88552381D01*
X121833333Y-88504762D01*
X121785714Y-88409524D01*
X121785714Y-88314285D01*
X121785714Y-88076190D02*
X122452381Y-87838095D01*
X121785714Y-87599999D01*
X122452381Y-87076190D02*
X122404762Y-87171428D01*
X122357143Y-87219047D01*
X122261905Y-87266666D01*
X121976190Y-87266666D01*
X121880952Y-87219047D01*
X121833333Y-87171428D01*
X121785714Y-87076190D01*
X121785714Y-86933332D01*
X121833333Y-86838094D01*
X121880952Y-86790475D01*
X121976190Y-86742856D01*
X122261905Y-86742856D01*
X122357143Y-86790475D01*
X122404762Y-86838094D01*
X122452381Y-86933332D01*
X122452381Y-87076190D01*
X117702381Y-100583333D02*
X118416667Y-100583333D01*
X118559524Y-100630953D01*
X118654762Y-100726191D01*
X118702381Y-100869048D01*
X118702381Y-100964286D01*
X118035714Y-99678571D02*
X118702381Y-99678571D01*
X117654762Y-99916667D02*
X118369048Y-100154762D01*
X118369048Y-99535714D01*
X118702381Y-98476190D02*
X117702381Y-98476190D01*
X118607143Y-97428571D02*
X118654762Y-97476190D01*
X118702381Y-97619047D01*
X118702381Y-97714285D01*
X118654762Y-97857143D01*
X118559524Y-97952381D01*
X118464286Y-98000000D01*
X118273810Y-98047619D01*
X118130952Y-98047619D01*
X117940476Y-98000000D01*
X117845238Y-97952381D01*
X117750000Y-97857143D01*
X117702381Y-97714285D01*
X117702381Y-97619047D01*
X117750000Y-97476190D01*
X117797619Y-97428571D01*
X118654762Y-97047619D02*
X118702381Y-96904762D01*
X118702381Y-96666666D01*
X118654762Y-96571428D01*
X118607143Y-96523809D01*
X118511905Y-96476190D01*
X118416667Y-96476190D01*
X118321429Y-96523809D01*
X118273810Y-96571428D01*
X118226190Y-96666666D01*
X118178571Y-96857143D01*
X118130952Y-96952381D01*
X118083333Y-97000000D01*
X117988095Y-97047619D01*
X117892857Y-97047619D01*
X117797619Y-97000000D01*
X117750000Y-96952381D01*
X117702381Y-96857143D01*
X117702381Y-96619047D01*
X117750000Y-96476190D01*
X118702381Y-96047619D02*
X117702381Y-96047619D01*
X117702381Y-95666666D01*
X117750000Y-95571428D01*
X117797619Y-95523809D01*
X117892857Y-95476190D01*
X118035714Y-95476190D01*
X118130952Y-95523809D01*
X118178571Y-95571428D01*
X118226190Y-95666666D01*
X118226190Y-96047619D01*
X117702381Y-100583333D02*
X118416667Y-100583333D01*
X118559524Y-100630953D01*
X118654762Y-100726191D01*
X118702381Y-100869048D01*
X118702381Y-100964286D01*
X118035714Y-99678571D02*
X118702381Y-99678571D01*
X117654762Y-99916667D02*
X118369048Y-100154762D01*
X118369048Y-99535714D01*
X117702381Y-108083333D02*
X118416667Y-108083333D01*
X118559524Y-108130953D01*
X118654762Y-108226191D01*
X118702381Y-108369048D01*
X118702381Y-108464286D01*
X117702381Y-107130952D02*
X117702381Y-107607143D01*
X118178571Y-107654762D01*
X118130952Y-107607143D01*
X118083333Y-107511905D01*
X118083333Y-107273809D01*
X118130952Y-107178571D01*
X118178571Y-107130952D01*
X118273810Y-107083333D01*
X118511905Y-107083333D01*
X118607143Y-107130952D01*
X118654762Y-107178571D01*
X118702381Y-107273809D01*
X118702381Y-107511905D01*
X118654762Y-107607143D01*
X118607143Y-107654762D01*
X118702381Y-106476191D02*
X117702381Y-106476191D01*
X117702381Y-106095238D01*
X117750000Y-106000000D01*
X117797619Y-105952381D01*
X117892857Y-105904762D01*
X118035714Y-105904762D01*
X118130952Y-105952381D01*
X118178571Y-106000000D01*
X118226190Y-106095238D01*
X118226190Y-106476191D01*
X118702381Y-105476191D02*
X118035714Y-105476191D01*
X118226190Y-105476191D02*
X118130952Y-105428572D01*
X118083333Y-105380953D01*
X118035714Y-105285715D01*
X118035714Y-105190476D01*
X118702381Y-104714286D02*
X118654762Y-104809524D01*
X118607143Y-104857143D01*
X118511905Y-104904762D01*
X118226190Y-104904762D01*
X118130952Y-104857143D01*
X118083333Y-104809524D01*
X118035714Y-104714286D01*
X118035714Y-104571428D01*
X118083333Y-104476190D01*
X118130952Y-104428571D01*
X118226190Y-104380952D01*
X118511905Y-104380952D01*
X118607143Y-104428571D01*
X118654762Y-104476190D01*
X118702381Y-104571428D01*
X118702381Y-104714286D01*
X118035714Y-103523809D02*
X118845238Y-103523809D01*
X118940476Y-103571428D01*
X118988095Y-103619047D01*
X119035714Y-103714286D01*
X119035714Y-103857143D01*
X118988095Y-103952381D01*
X118654762Y-103523809D02*
X118702381Y-103619047D01*
X118702381Y-103809524D01*
X118654762Y-103904762D01*
X118607143Y-103952381D01*
X118511905Y-104000000D01*
X118226190Y-104000000D01*
X118130952Y-103952381D01*
X118083333Y-103904762D01*
X118035714Y-103809524D01*
X118035714Y-103619047D01*
X118083333Y-103523809D01*
X135238095Y-91702381D02*
X135238095Y-92511905D01*
X135285714Y-92607143D01*
X135333333Y-92654762D01*
X135428571Y-92702381D01*
X135619048Y-92702381D01*
X135714286Y-92654762D01*
X135761905Y-92607143D01*
X135809524Y-92511905D01*
X135809524Y-91702381D01*
X136809524Y-92702381D02*
X136238095Y-92702381D01*
X136523809Y-92702381D02*
X136523809Y-91702381D01*
X136428571Y-91845238D01*
X136333333Y-91940476D01*
X136238095Y-91988095D01*
X138226191Y-92702381D02*
X137654762Y-92702381D01*
X137940476Y-92702381D02*
X137940476Y-91702381D01*
X137845238Y-91845238D01*
X137750000Y-91940476D01*
X137654762Y-91988095D01*
X138607143Y-91797619D02*
X138654762Y-91750000D01*
X138750000Y-91702381D01*
X138988096Y-91702381D01*
X139083334Y-91750000D01*
X139130953Y-91797619D01*
X139178572Y-91892857D01*
X139178572Y-91988095D01*
X139130953Y-92130952D01*
X138559524Y-92702381D01*
X139178572Y-92702381D01*
X139940477Y-92178571D02*
X139607143Y-92178571D01*
X139607143Y-92702381D02*
X139607143Y-91702381D01*
X140083334Y-91702381D01*
X140988096Y-92702381D02*
X140416667Y-92702381D01*
X140702381Y-92702381D02*
X140702381Y-91702381D01*
X140607143Y-91845238D01*
X140511905Y-91940476D01*
X140416667Y-91988095D01*
X141559524Y-92130952D02*
X141464286Y-92083333D01*
X141416667Y-92035714D01*
X141369048Y-91940476D01*
X141369048Y-91892857D01*
X141416667Y-91797619D01*
X141464286Y-91750000D01*
X141559524Y-91702381D01*
X141750001Y-91702381D01*
X141845239Y-91750000D01*
X141892858Y-91797619D01*
X141940477Y-91892857D01*
X141940477Y-91940476D01*
X141892858Y-92035714D01*
X141845239Y-92083333D01*
X141750001Y-92130952D01*
X141559524Y-92130952D01*
X141464286Y-92178571D01*
X141416667Y-92226190D01*
X141369048Y-92321429D01*
X141369048Y-92511905D01*
X141416667Y-92607143D01*
X141464286Y-92654762D01*
X141559524Y-92702381D01*
X141750001Y-92702381D01*
X141845239Y-92654762D01*
X141892858Y-92607143D01*
X141940477Y-92511905D01*
X141940477Y-92321429D01*
X141892858Y-92226190D01*
X141845239Y-92178571D01*
X141750001Y-92130952D01*
X142797620Y-92035714D02*
X142797620Y-92702381D01*
X142559524Y-91654762D02*
X142321429Y-92369048D01*
X142940477Y-92369048D01*
X143511905Y-91702381D02*
X143607144Y-91702381D01*
X143702382Y-91750000D01*
X143750001Y-91797619D01*
X143797620Y-91892857D01*
X143845239Y-92083333D01*
X143845239Y-92321429D01*
X143797620Y-92511905D01*
X143750001Y-92607143D01*
X143702382Y-92654762D01*
X143607144Y-92702381D01*
X143511905Y-92702381D01*
X143416667Y-92654762D01*
X143369048Y-92607143D01*
X143321429Y-92511905D01*
X143273810Y-92321429D01*
X143273810Y-92083333D01*
X143321429Y-91892857D01*
X143369048Y-91797619D01*
X143416667Y-91750000D01*
X143511905Y-91702381D01*
X124666667Y-97952381D02*
X124666667Y-98666667D01*
X124619047Y-98809524D01*
X124523809Y-98904762D01*
X124380952Y-98952381D01*
X124285714Y-98952381D01*
X125666667Y-98952381D02*
X125095238Y-98952381D01*
X125380952Y-98952381D02*
X125380952Y-97952381D01*
X125285714Y-98095238D01*
X125190476Y-98190476D01*
X125095238Y-98238095D01*
X129880952Y-98952381D02*
X129880952Y-97952381D01*
X130261905Y-97952381D01*
X130357143Y-98000000D01*
X130404762Y-98047619D01*
X130452381Y-98142857D01*
X130452381Y-98285714D01*
X130404762Y-98380952D01*
X130357143Y-98428571D01*
X130261905Y-98476190D01*
X129880952Y-98476190D01*
X131023809Y-98952381D02*
X130928571Y-98904762D01*
X130880952Y-98857143D01*
X130833333Y-98761905D01*
X130833333Y-98476190D01*
X130880952Y-98380952D01*
X130928571Y-98333333D01*
X131023809Y-98285714D01*
X131166667Y-98285714D01*
X131261905Y-98333333D01*
X131309524Y-98380952D01*
X131357143Y-98476190D01*
X131357143Y-98761905D01*
X131309524Y-98857143D01*
X131261905Y-98904762D01*
X131166667Y-98952381D01*
X131023809Y-98952381D01*
X131785714Y-98952381D02*
X131785714Y-98285714D01*
X131785714Y-98476190D02*
X131833333Y-98380952D01*
X131880952Y-98333333D01*
X131976190Y-98285714D01*
X132071429Y-98285714D01*
X132261905Y-98285714D02*
X132642857Y-98285714D01*
X132404762Y-97952381D02*
X132404762Y-98809524D01*
X132452381Y-98904762D01*
X132547619Y-98952381D01*
X132642857Y-98952381D01*
X133690477Y-98666667D02*
X134166668Y-98666667D01*
X133595239Y-98952381D02*
X133928572Y-97952381D01*
X134261906Y-98952381D01*
X131666667Y-95952381D02*
X131666667Y-96666667D01*
X131619047Y-96809524D01*
X131523809Y-96904762D01*
X131380952Y-96952381D01*
X131285714Y-96952381D01*
X132095238Y-96047619D02*
X132142857Y-96000000D01*
X132238095Y-95952381D01*
X132476191Y-95952381D01*
X132571429Y-96000000D01*
X132619048Y-96047619D01*
X132666667Y-96142857D01*
X132666667Y-96238095D01*
X132619048Y-96380952D01*
X132047619Y-96952381D01*
X132666667Y-96952381D01*
X122809523Y-96952381D02*
X122809523Y-95952381D01*
X123190476Y-95952381D01*
X123285714Y-96000000D01*
X123333333Y-96047619D01*
X123380952Y-96142857D01*
X123380952Y-96285714D01*
X123333333Y-96380952D01*
X123285714Y-96428571D01*
X123190476Y-96476190D01*
X122809523Y-96476190D01*
X123952380Y-96952381D02*
X123857142Y-96904762D01*
X123809523Y-96857143D01*
X123761904Y-96761905D01*
X123761904Y-96476190D01*
X123809523Y-96380952D01*
X123857142Y-96333333D01*
X123952380Y-96285714D01*
X124095238Y-96285714D01*
X124190476Y-96333333D01*
X124238095Y-96380952D01*
X124285714Y-96476190D01*
X124285714Y-96761905D01*
X124238095Y-96857143D01*
X124190476Y-96904762D01*
X124095238Y-96952381D01*
X123952380Y-96952381D01*
X124714285Y-96952381D02*
X124714285Y-96285714D01*
X124714285Y-96476190D02*
X124761904Y-96380952D01*
X124809523Y-96333333D01*
X124904761Y-96285714D01*
X125000000Y-96285714D01*
X125190476Y-96285714D02*
X125571428Y-96285714D01*
X125333333Y-95952381D02*
X125333333Y-96809524D01*
X125380952Y-96904762D01*
X125476190Y-96952381D01*
X125571428Y-96952381D01*
X127000001Y-96428571D02*
X127142858Y-96476190D01*
X127190477Y-96523810D01*
X127238096Y-96619048D01*
X127238096Y-96761905D01*
X127190477Y-96857143D01*
X127142858Y-96904762D01*
X127047620Y-96952381D01*
X126666667Y-96952381D01*
X126666667Y-95952381D01*
X127000001Y-95952381D01*
X127095239Y-96000000D01*
X127142858Y-96047619D01*
X127190477Y-96142857D01*
X127190477Y-96238095D01*
X127142858Y-96333333D01*
X127095239Y-96380952D01*
X127000001Y-96428571D01*
X126666667Y-96428571D01*
X135952381Y-106738095D02*
X134952381Y-106738095D01*
X134952381Y-106500000D01*
X135000000Y-106357142D01*
X135095238Y-106261904D01*
X135190476Y-106214285D01*
X135380952Y-106166666D01*
X135523810Y-106166666D01*
X135714286Y-106214285D01*
X135809524Y-106261904D01*
X135904762Y-106357142D01*
X135952381Y-106500000D01*
X135952381Y-106738095D01*
X135952381Y-105214285D02*
X135952381Y-105785714D01*
X135952381Y-105500000D02*
X134952381Y-105500000D01*
X135095238Y-105595238D01*
X135190476Y-105690476D01*
X135238095Y-105785714D01*
X142952381Y-108809524D02*
X143952381Y-108571429D01*
X143238095Y-108380952D01*
X143952381Y-108190476D01*
X142952381Y-107952381D01*
X143904762Y-107619048D02*
X143952381Y-107476191D01*
X143952381Y-107238095D01*
X143904762Y-107142857D01*
X143857143Y-107095238D01*
X143761905Y-107047619D01*
X143666667Y-107047619D01*
X143571429Y-107095238D01*
X143523810Y-107142857D01*
X143476190Y-107238095D01*
X143428571Y-107428572D01*
X143380952Y-107523810D01*
X143333333Y-107571429D01*
X143238095Y-107619048D01*
X143142857Y-107619048D01*
X143047619Y-107571429D01*
X143000000Y-107523810D01*
X142952381Y-107428572D01*
X142952381Y-107190476D01*
X143000000Y-107047619D01*
X143047619Y-106666667D02*
X143000000Y-106619048D01*
X142952381Y-106523810D01*
X142952381Y-106285714D01*
X143000000Y-106190476D01*
X143047619Y-106142857D01*
X143142857Y-106095238D01*
X143238095Y-106095238D01*
X143380952Y-106142857D01*
X143952381Y-106714286D01*
X143952381Y-106095238D01*
X143380952Y-105523810D02*
X143333333Y-105619048D01*
X143285714Y-105666667D01*
X143190476Y-105714286D01*
X143142857Y-105714286D01*
X143047619Y-105666667D01*
X143000000Y-105619048D01*
X142952381Y-105523810D01*
X142952381Y-105333333D01*
X143000000Y-105238095D01*
X143047619Y-105190476D01*
X143142857Y-105142857D01*
X143190476Y-105142857D01*
X143285714Y-105190476D01*
X143333333Y-105238095D01*
X143380952Y-105333333D01*
X143380952Y-105523810D01*
X143428571Y-105619048D01*
X143476190Y-105666667D01*
X143571429Y-105714286D01*
X143761905Y-105714286D01*
X143857143Y-105666667D01*
X143904762Y-105619048D01*
X143952381Y-105523810D01*
X143952381Y-105333333D01*
X143904762Y-105238095D01*
X143857143Y-105190476D01*
X143761905Y-105142857D01*
X143571429Y-105142857D01*
X143476190Y-105190476D01*
X143428571Y-105238095D01*
X143380952Y-105333333D01*
X143952381Y-104190476D02*
X143952381Y-104761905D01*
X143952381Y-104476191D02*
X142952381Y-104476191D01*
X143095238Y-104571429D01*
X143190476Y-104666667D01*
X143238095Y-104761905D01*
X143047619Y-103809524D02*
X143000000Y-103761905D01*
X142952381Y-103666667D01*
X142952381Y-103428571D01*
X143000000Y-103333333D01*
X143047619Y-103285714D01*
X143142857Y-103238095D01*
X143238095Y-103238095D01*
X143380952Y-103285714D01*
X143952381Y-103857143D01*
X143952381Y-103238095D01*
X143428571Y-102476190D02*
X143476190Y-102333333D01*
X143523810Y-102285714D01*
X143619048Y-102238095D01*
X143761905Y-102238095D01*
X143857143Y-102285714D01*
X143904762Y-102333333D01*
X143952381Y-102428571D01*
X143952381Y-102809524D01*
X142952381Y-102809524D01*
X142952381Y-102476190D01*
X143000000Y-102380952D01*
X143047619Y-102333333D01*
X143142857Y-102285714D01*
X143238095Y-102285714D01*
X143333333Y-102333333D01*
X143380952Y-102380952D01*
X143428571Y-102476190D01*
X143428571Y-102809524D01*
M02*
