G04 #@! TF.FileFunction,Copper,L1,Top,Signal*
%FSLAX46Y46*%
G04 Gerber Fmt 4.6, Leading zero omitted, Abs format (unit mm)*
G04 Created by KiCad (PCBNEW 4.0.7) date 02/19/20 23:21:01*
%MOMM*%
%LPD*%
G01*
G04 APERTURE LIST*
%ADD10C,0.100000*%
%ADD11R,1.600000X2.000000*%
%ADD12R,2.000000X1.600000*%
%ADD13R,1.700000X1.700000*%
%ADD14O,1.700000X1.700000*%
%ADD15R,1.143000X0.508000*%
%ADD16R,1.600000X1.000000*%
%ADD17C,0.600000*%
%ADD18C,1.000000*%
%ADD19C,0.250000*%
G04 APERTURE END LIST*
D10*
D11*
X137000000Y-98000000D03*
X137000000Y-94000000D03*
X120000000Y-96500000D03*
X120000000Y-100500000D03*
X141000000Y-98000000D03*
X141000000Y-94000000D03*
D12*
X141000000Y-101500000D03*
X137000000Y-101500000D03*
D13*
X120500000Y-93000000D03*
D14*
X120500000Y-90460000D03*
X120500000Y-87920000D03*
D13*
X116000000Y-107000000D03*
D14*
X116000000Y-104460000D03*
X116000000Y-101920000D03*
X116000000Y-99380000D03*
X116000000Y-96840000D03*
D13*
X120000000Y-107000000D03*
D14*
X120000000Y-104460000D03*
D15*
X136325000Y-90905000D03*
X136325000Y-89635000D03*
X136325000Y-88365000D03*
X136325000Y-87095000D03*
X142675000Y-87095000D03*
X142675000Y-88365000D03*
X142675000Y-89635000D03*
X142675000Y-90905000D03*
D13*
X132000000Y-100000000D03*
D14*
X129500000Y-100000000D03*
X127000000Y-100000000D03*
X124500000Y-100000000D03*
D13*
X125000000Y-95000000D03*
D14*
X127500000Y-95000000D03*
X130000000Y-95000000D03*
X132500000Y-95000000D03*
D16*
X141500000Y-107600000D03*
X141500000Y-104400000D03*
X136500000Y-107600000D03*
X136500000Y-104400000D03*
D17*
X135500000Y-100000000D03*
X132500000Y-102500000D03*
D18*
X135500000Y-100000000D02*
X135500000Y-98000000D01*
X135500000Y-98000000D02*
X135500000Y-98500000D01*
X135500000Y-98500000D02*
X135500000Y-98000000D01*
X123000000Y-96500000D02*
X120000000Y-96500000D01*
X124500000Y-95000000D02*
X123000000Y-96500000D01*
X125000000Y-95000000D02*
X124500000Y-95000000D01*
X132000000Y-98500000D02*
X132000000Y-100000000D01*
X131000000Y-97500000D02*
X132000000Y-98500000D01*
X126000000Y-97500000D02*
X131000000Y-97500000D01*
X125000000Y-96500000D02*
X126000000Y-97500000D01*
X125000000Y-95000000D02*
X125000000Y-96500000D01*
X134500000Y-98000000D02*
X135500000Y-98000000D01*
X135500000Y-98000000D02*
X137000000Y-98000000D01*
X134000000Y-98500000D02*
X134500000Y-98000000D01*
X132000000Y-98500000D02*
X134000000Y-98500000D01*
X137000000Y-98000000D02*
X141000000Y-98000000D01*
X142500300Y-92598500D02*
X142500300Y-98000000D01*
X141403200Y-91501400D02*
X142500300Y-92598500D01*
X141403200Y-90905000D02*
X141403200Y-91501400D01*
X142675000Y-90905000D02*
X141403200Y-90905000D01*
X141000000Y-98000000D02*
X142500300Y-98000000D01*
X136500000Y-104400000D02*
X138000300Y-104400000D01*
X141000000Y-101500000D02*
X141000000Y-98000000D01*
X139299700Y-103100600D02*
X138000300Y-104400000D01*
X139299700Y-101500000D02*
X139299700Y-103100600D01*
X141000000Y-101500000D02*
X139299700Y-101500000D01*
X132500000Y-102500000D02*
X134964500Y-102500000D01*
X134964500Y-102500000D02*
X134750000Y-102500000D01*
X134750000Y-102500000D02*
X134964500Y-102500000D01*
X132090300Y-102909700D02*
X120000000Y-102909700D01*
X132500000Y-102500000D02*
X132090300Y-102909700D01*
X133500000Y-94000000D02*
X137000000Y-94000000D01*
X132500000Y-95000000D02*
X133500000Y-94000000D01*
X137596800Y-91702900D02*
X137000000Y-92299700D01*
X137596800Y-90905000D02*
X137596800Y-91702900D01*
X136325000Y-90905000D02*
X137596800Y-90905000D01*
X116000000Y-101920000D02*
X117250200Y-101920000D01*
X117550300Y-101920000D02*
X118540000Y-102909700D01*
X118540000Y-102909700D02*
X120000000Y-102909700D01*
X117250200Y-101920000D02*
X117550300Y-101920000D01*
X120000000Y-104460000D02*
X120000000Y-102909700D01*
X137000000Y-94000000D02*
X137000000Y-93149800D01*
X137000000Y-93149800D02*
X137000000Y-92299700D01*
X138649500Y-93149800D02*
X139499700Y-94000000D01*
X137000000Y-93149800D02*
X138649500Y-93149800D01*
X141000000Y-94000000D02*
X139499700Y-94000000D01*
X124000000Y-100000000D02*
X123585000Y-100415000D01*
X124500000Y-100000000D02*
X124000000Y-100000000D01*
X123500000Y-100500000D02*
X120000000Y-100500000D01*
X123585000Y-100415000D02*
X123500000Y-100500000D01*
X137000000Y-101500000D02*
X135299700Y-101500000D01*
X134964500Y-101556200D02*
X135243500Y-101556200D01*
X135243500Y-101556200D02*
X135299700Y-101500000D01*
X134964500Y-102500000D02*
X134964500Y-101556200D01*
X141500000Y-107600000D02*
X139999700Y-107600000D01*
X139999700Y-107600000D02*
X138799400Y-106399700D01*
X138799400Y-106399700D02*
X136195400Y-106399700D01*
X136195400Y-106399700D02*
X134964500Y-105168800D01*
X134964500Y-105168800D02*
X134964500Y-102500000D01*
D19*
X143571800Y-103453500D02*
X143571800Y-88365000D01*
X142625300Y-104400000D02*
X143571800Y-103453500D01*
X141500000Y-104400000D02*
X142625300Y-104400000D01*
X142675000Y-88365000D02*
X143571800Y-88365000D01*
X134943000Y-88365000D02*
X136325000Y-88365000D01*
X128675300Y-94632700D02*
X134943000Y-88365000D01*
X128675300Y-95000000D02*
X128675300Y-94632700D01*
X118709600Y-98374300D02*
X117175300Y-96840000D01*
X127066300Y-98374300D02*
X118709600Y-98374300D01*
X128324700Y-99632700D02*
X127066300Y-98374300D01*
X128324700Y-100000000D02*
X128324700Y-99632700D01*
X129500000Y-100000000D02*
X128324700Y-100000000D01*
X116000000Y-96840000D02*
X117175300Y-96840000D01*
X127500000Y-95000000D02*
X128078200Y-95000000D01*
X128078200Y-95000000D02*
X128675300Y-95000000D01*
X119839900Y-94175400D02*
X117175300Y-96840000D01*
X122762500Y-94175400D02*
X119839900Y-94175400D01*
X123113300Y-93824600D02*
X122762500Y-94175400D01*
X126902800Y-93824600D02*
X123113300Y-93824600D01*
X128078200Y-95000000D02*
X126902800Y-93824600D01*
X131175300Y-93887900D02*
X135428200Y-89635000D01*
X131175300Y-95000000D02*
X131175300Y-93887900D01*
X130000000Y-95000000D02*
X131175300Y-95000000D01*
X136325000Y-89635000D02*
X135428200Y-89635000D01*
X125824700Y-99632600D02*
X125824700Y-100000000D01*
X125016800Y-98824700D02*
X125824700Y-99632600D01*
X117730600Y-98824700D02*
X125016800Y-98824700D01*
X117175300Y-99380000D02*
X117730600Y-98824700D01*
X116000000Y-99380000D02*
X117175300Y-99380000D01*
X127000000Y-100000000D02*
X125824700Y-100000000D01*
X120500000Y-93000000D02*
X121675300Y-93000000D01*
X126889800Y-87785500D02*
X121675300Y-93000000D01*
X138740500Y-87785500D02*
X126889800Y-87785500D01*
X140590000Y-89635000D02*
X138740500Y-87785500D01*
X142675000Y-89635000D02*
X140590000Y-89635000D01*
X115632600Y-105824700D02*
X116000000Y-105824700D01*
X114824700Y-105016800D02*
X115632600Y-105824700D01*
X114824700Y-96347200D02*
X114824700Y-105016800D01*
X119480100Y-91691800D02*
X114824700Y-96347200D01*
X121863900Y-91691800D02*
X119480100Y-91691800D01*
X127040000Y-86515700D02*
X121863900Y-91691800D01*
X141198900Y-86515700D02*
X127040000Y-86515700D01*
X141778200Y-87095000D02*
X141198900Y-86515700D01*
X142675000Y-87095000D02*
X141778200Y-87095000D01*
X116000000Y-107000000D02*
X116000000Y-106412300D01*
X116000000Y-106412300D02*
X116000000Y-105824700D01*
X118237000Y-106412300D02*
X118824700Y-107000000D01*
X116000000Y-106412300D02*
X118237000Y-106412300D01*
X120000000Y-107000000D02*
X118824700Y-107000000D01*
M02*
