M48
;DRILL file {KiCad 4.0.7} date 02/19/20 23:21:03
;FORMAT={3:3/ absolute / metric / suppress leading zeros}
FMAT,2
METRIC,TZ
T1C0.400
T2C0.800
T3C1.000
%
G90
G05
M71
T1
X132500Y-102500
X135500Y-100000
T2
X124500Y-100000
X125000Y-95000
X127000Y-100000
X127500Y-95000
X129500Y-100000
X130000Y-95000
X132000Y-100000
X132500Y-95000
T3
X116000Y-96840
X116000Y-99380
X116000Y-101920
X116000Y-104460
X116000Y-107000
X120000Y-104460
X120000Y-107000
X120500Y-87920
X120500Y-90460
X120500Y-93000
T0
M30
